<svg width="1280" height="720" xmlns="http://www.w3.org/2000/svg" xmlns:xlink="http://www.w3.org/1999/xlink" overflow="hidden"><defs><filter id="fx0" x="-10%" y="-10%" width="120%" height="120%" filterUnits="userSpaceOnUse" primitiveUnits="userSpaceOnUse"><feComponentTransfer color-interpolation-filters="sRGB"><feFuncR type="discrete" tableValues="1 1"/><feFuncG type="discrete" tableValues="1 1"/><feFuncB type="discrete" tableValues="1 1"/><feFuncA type="linear" slope="0.4" intercept="0"/></feComponentTransfer><feGaussianBlur stdDeviation="4.44444 4.44444"/></filter><filter id="fx1" x="-10%" y="-10%" width="120%" height="120%" filterUnits="userSpaceOnUse" primitiveUnits="userSpaceOnUse"><feComponentTransfer color-interpolation-filters="sRGB"><feFuncR type="discrete" tableValues="0.65098 0.65098"/><feFuncG type="discrete" tableValues="0.65098 0.65098"/><feFuncB type="discrete" tableValues="0.65098 0.65098"/><feFuncA type="linear" slope="0.4" intercept="0"/></feComponentTransfer><feGaussianBlur stdDeviation="6.66667 6.66667"/></filter><filter id="fx2" x="-10%" y="-10%" width="120%" height="120%" filterUnits="userSpaceOnUse" primitiveUnits="userSpaceOnUse"><feComponentTransfer color-interpolation-filters="sRGB"><feFuncR type="discrete" tableValues="1 1"/><feFuncG type="discrete" tableValues="1 1"/><feFuncB type="discrete" tableValues="1 1"/><feFuncA type="linear" slope="0.4" intercept="0"/></feComponentTransfer><feGaussianBlur stdDeviation="4.44444 4.44444"/></filter><filter id="fx3" x="-10%" y="-10%" width="120%" height="120%" filterUnits="userSpaceOnUse" primitiveUnits="userSpaceOnUse"><feComponentTransfer color-interpolation-filters="sRGB"><feFuncR type="discrete" tableValues="0.65098 0.65098"/><feFuncG type="discrete" tableValues="0.65098 0.65098"/><feFuncB type="discrete" tableValues="0.65098 0.65098"/><feFuncA type="linear" slope="0.4" intercept="0"/></feComponentTransfer><feGaussianBlur stdDeviation="6.66667 6.66667"/></filter><filter id="fx4" x="-10%" y="-10%" width="120%" height="120%" filterUnits="userSpaceOnUse" primitiveUnits="userSpaceOnUse"><feComponentTransfer color-interpolation-filters="sRGB"><feFuncR type="discrete" tableValues="1 1"/><feFuncG type="discrete" tableValues="1 1"/><feFuncB type="discrete" tableValues="1 1"/><feFuncA type="linear" slope="0.4" intercept="0"/></feComponentTransfer><feGaussianBlur stdDeviation="4.44444 4.44444"/></filter><filter id="fx5" x="-10%" y="-10%" width="120%" height="120%" filterUnits="userSpaceOnUse" primitiveUnits="userSpaceOnUse"><feComponentTransfer color-interpolation-filters="sRGB"><feFuncR type="discrete" tableValues="0.65098 0.65098"/><feFuncG type="discrete" tableValues="0.65098 0.65098"/><feFuncB type="discrete" tableValues="0.65098 0.65098"/><feFuncA type="linear" slope="0.4" intercept="0"/></feComponentTransfer><feGaussianBlur stdDeviation="6.66667 6.66667"/></filter><filter id="fx6" x="-10%" y="-10%" width="120%" height="120%" filterUnits="userSpaceOnUse" primitiveUnits="userSpaceOnUse"><feComponentTransfer color-interpolation-filters="sRGB"><feFuncR type="discrete" tableValues="1 1"/><feFuncG type="discrete" tableValues="1 1"/><feFuncB type="discrete" tableValues="1 1"/><feFuncA type="linear" slope="0.4" intercept="0"/></feComponentTransfer><feGaussianBlur stdDeviation="4.44444 4.44444"/></filter><filter id="fx7" x="-10%" y="-10%" width="120%" height="120%" filterUnits="userSpaceOnUse" primitiveUnits="userSpaceOnUse"><feComponentTransfer color-interpolation-filters="sRGB"><feFuncR type="discrete" tableValues="0.65098 0.65098"/><feFuncG type="discrete" tableValues="0.65098 0.65098"/><feFuncB type="discrete" tableValues="0.65098 0.65098"/><feFuncA type="linear" slope="0.4" intercept="0"/></feComponentTransfer><feGaussianBlur stdDeviation="6.66667 6.66667"/></filter><filter id="fx8" x="-10%" y="-10%" width="120%" height="120%" filterUnits="userSpaceOnUse" primitiveUnits="userSpaceOnUse"><feComponentTransfer color-interpolation-filters="sRGB"><feFuncR type="discrete" tableValues="1 1"/><feFuncG type="discrete" tableValues="1 1"/><feFuncB type="discrete" tableValues="1 1"/><feFuncA type="linear" slope="0.4" intercept="0"/></feComponentTransfer><feGaussianBlur stdDeviation="4.44444 4.44444"/></filter><filter id="fx9" x="-10%" y="-10%" width="120%" height="120%" filterUnits="userSpaceOnUse" primitiveUnits="userSpaceOnUse"><feComponentTransfer color-interpolation-filters="sRGB"><feFuncR type="discrete" tableValues="0.65098 0.65098"/><feFuncG type="discrete" tableValues="0.65098 0.65098"/><feFuncB type="discrete" tableValues="0.65098 0.65098"/><feFuncA type="linear" slope="0.4" intercept="0"/></feComponentTransfer><feGaussianBlur stdDeviation="6.66667 6.66667"/></filter><filter id="fx10" x="-10%" y="-10%" width="120%" height="120%" filterUnits="userSpaceOnUse" primitiveUnits="userSpaceOnUse"><feComponentTransfer color-interpolation-filters="sRGB"><feFuncR type="discrete" tableValues="1 1"/><feFuncG type="discrete" tableValues="1 1"/><feFuncB type="discrete" tableValues="1 1"/><feFuncA type="linear" slope="0.4" intercept="0"/></feComponentTransfer><feGaussianBlur stdDeviation="4.44444 4.44444"/></filter><filter id="fx11" x="-10%" y="-10%" width="120%" height="120%" filterUnits="userSpaceOnUse" primitiveUnits="userSpaceOnUse"><feComponentTransfer color-interpolation-filters="sRGB"><feFuncR type="discrete" tableValues="0.65098 0.65098"/><feFuncG type="discrete" tableValues="0.65098 0.65098"/><feFuncB type="discrete" tableValues="0.65098 0.65098"/><feFuncA type="linear" slope="0.4" intercept="0"/></feComponentTransfer><feGaussianBlur stdDeviation="6.66667 6.66667"/></filter><filter id="fx12" x="-10%" y="-10%" width="120%" height="120%" filterUnits="userSpaceOnUse" primitiveUnits="userSpaceOnUse"><feComponentTransfer color-interpolation-filters="sRGB"><feFuncR type="discrete" tableValues="1 1"/><feFuncG type="discrete" tableValues="1 1"/><feFuncB type="discrete" tableValues="1 1"/><feFuncA type="linear" slope="0.4" intercept="0"/></feComponentTransfer><feGaussianBlur stdDeviation="4.44444 4.44444"/></filter><filter id="fx13" x="-10%" y="-10%" width="120%" height="120%" filterUnits="userSpaceOnUse" primitiveUnits="userSpaceOnUse"><feComponentTransfer color-interpolation-filters="sRGB"><feFuncR type="discrete" tableValues="0.65098 0.65098"/><feFuncG type="discrete" tableValues="0.65098 0.65098"/><feFuncB type="discrete" tableValues="0.65098 0.65098"/><feFuncA type="linear" slope="0.4" intercept="0"/></feComponentTransfer><feGaussianBlur stdDeviation="6.66667 6.66667"/></filter><filter id="fx14" x="-10%" y="-10%" width="120%" height="120%" filterUnits="userSpaceOnUse" primitiveUnits="userSpaceOnUse"><feComponentTransfer color-interpolation-filters="sRGB"><feFuncR type="discrete" tableValues="1 1"/><feFuncG type="discrete" tableValues="1 1"/><feFuncB type="discrete" tableValues="1 1"/><feFuncA type="linear" slope="0.4" intercept="0"/></feComponentTransfer><feGaussianBlur stdDeviation="4.44444 4.44444"/></filter><filter id="fx15" x="-10%" y="-10%" width="120%" height="120%" filterUnits="userSpaceOnUse" primitiveUnits="userSpaceOnUse"><feComponentTransfer color-interpolation-filters="sRGB"><feFuncR type="discrete" tableValues="0.65098 0.65098"/><feFuncG type="discrete" tableValues="0.65098 0.65098"/><feFuncB type="discrete" tableValues="0.65098 0.65098"/><feFuncA type="linear" slope="0.4" intercept="0"/></feComponentTransfer><feGaussianBlur stdDeviation="6.66667 6.66667"/></filter><filter id="fx16" x="-10%" y="-10%" width="120%" height="120%" filterUnits="userSpaceOnUse" primitiveUnits="userSpaceOnUse"><feComponentTransfer color-interpolation-filters="sRGB"><feFuncR type="discrete" tableValues="1 1"/><feFuncG type="discrete" tableValues="1 1"/><feFuncB type="discrete" tableValues="1 1"/><feFuncA type="linear" slope="0.4" intercept="0"/></feComponentTransfer><feGaussianBlur stdDeviation="4.44444 4.44444"/></filter><filter id="fx17" x="-10%" y="-10%" width="120%" height="120%" filterUnits="userSpaceOnUse" primitiveUnits="userSpaceOnUse"><feComponentTransfer color-interpolation-filters="sRGB"><feFuncR type="discrete" tableValues="0.65098 0.65098"/><feFuncG type="discrete" tableValues="0.65098 0.65098"/><feFuncB type="discrete" tableValues="0.65098 0.65098"/><feFuncA type="linear" slope="0.4" intercept="0"/></feComponentTransfer><feGaussianBlur stdDeviation="6.66667 6.66667"/></filter><filter id="fx18" x="-10%" y="-10%" width="120%" height="120%" filterUnits="userSpaceOnUse" primitiveUnits="userSpaceOnUse"><feComponentTransfer color-interpolation-filters="sRGB"><feFuncR type="discrete" tableValues="1 1"/><feFuncG type="discrete" tableValues="1 1"/><feFuncB type="discrete" tableValues="1 1"/><feFuncA type="linear" slope="0.4" intercept="0"/></feComponentTransfer><feGaussianBlur stdDeviation="4.44444 4.44444"/></filter><filter id="fx19" x="-10%" y="-10%" width="120%" height="120%" filterUnits="userSpaceOnUse" primitiveUnits="userSpaceOnUse"><feComponentTransfer color-interpolation-filters="sRGB"><feFuncR type="discrete" tableValues="0.65098 0.65098"/><feFuncG type="discrete" tableValues="0.65098 0.65098"/><feFuncB type="discrete" tableValues="0.65098 0.65098"/><feFuncA type="linear" slope="0.4" intercept="0"/></feComponentTransfer><feGaussianBlur stdDeviation="6.66667 6.66667"/></filter><filter id="fx20" x="-10%" y="-10%" width="120%" height="120%" filterUnits="userSpaceOnUse" primitiveUnits="userSpaceOnUse"><feComponentTransfer color-interpolation-filters="sRGB"><feFuncR type="discrete" tableValues="1 1"/><feFuncG type="discrete" tableValues="1 1"/><feFuncB type="discrete" tableValues="1 1"/><feFuncA type="linear" slope="0.4" intercept="0"/></feComponentTransfer><feGaussianBlur stdDeviation="4.44444 4.44444"/></filter><filter id="fx21" x="-10%" y="-10%" width="120%" height="120%" filterUnits="userSpaceOnUse" primitiveUnits="userSpaceOnUse"><feComponentTransfer color-interpolation-filters="sRGB"><feFuncR type="discrete" tableValues="0.65098 0.65098"/><feFuncG type="discrete" tableValues="0.65098 0.65098"/><feFuncB type="discrete" tableValues="0.65098 0.65098"/><feFuncA type="linear" slope="0.4" intercept="0"/></feComponentTransfer><feGaussianBlur stdDeviation="6.66667 6.66667"/></filter><clipPath id="clip22"><rect x="0" y="0" width="1280" height="720"/></clipPath><linearGradient x1="373.5" y1="214" x2="373.5" y2="346" gradientUnits="userSpaceOnUse" spreadMethod="reflect" id="fill23"><stop offset="0" stop-color="#EDEEF5"/><stop offset="0.0588235" stop-color="#EEEFF6"/><stop offset="0.117647" stop-color="#F0F1F7"/><stop offset="0.176471" stop-color="#F2F3F8"/><stop offset="0.235294" stop-color="#F4F4F8"/><stop offset="0.294118" stop-color="#F5F6F9"/><stop offset="0.352941" stop-color="#F7F7FA"/><stop offset="0.411765" stop-color="#F8F8FB"/><stop offset="0.470588" stop-color="#F9F9FB"/><stop offset="0.529412" stop-color="#FAFAFC"/><stop offset="0.588235" stop-color="#FBFBFD"/><stop offset="0.647059" stop-color="#FCFCFD"/><stop offset="0.705882" stop-color="#FDFDFD"/><stop offset="0.764706" stop-color="#FDFDFE"/><stop offset="0.823529" stop-color="#FEFEFE"/><stop offset="0.882353" stop-color="#FEFEFE"/><stop offset="0.941176" stop-color="#FEFEFE"/><stop offset="1" stop-color="#FFFFFF"/></linearGradient><linearGradient x1="639.5" y1="218" x2="639.5" y2="350" gradientUnits="userSpaceOnUse" spreadMethod="reflect" id="fill24"><stop offset="0" stop-color="#EDEEF5"/><stop offset="0.0588235" stop-color="#EEEFF6"/><stop offset="0.117647" stop-color="#F0F1F7"/><stop offset="0.176471" stop-color="#F2F3F8"/><stop offset="0.235294" stop-color="#F4F4F8"/><stop offset="0.294118" stop-color="#F5F6F9"/><stop offset="0.352941" stop-color="#F7F7FA"/><stop offset="0.411765" stop-color="#F8F8FB"/><stop offset="0.470588" stop-color="#F9F9FB"/><stop offset="0.529412" stop-color="#FAFAFC"/><stop offset="0.588235" stop-color="#FBFBFD"/><stop offset="0.647059" stop-color="#FCFCFD"/><stop offset="0.705882" stop-color="#FDFDFD"/><stop offset="0.764706" stop-color="#FDFDFE"/><stop offset="0.823529" stop-color="#FEFEFE"/><stop offset="0.882353" stop-color="#FEFEFE"/><stop offset="0.941176" stop-color="#FEFEFE"/><stop offset="1" stop-color="#FFFFFF"/></linearGradient><linearGradient x1="904.5" y1="218" x2="904.5" y2="350" gradientUnits="userSpaceOnUse" spreadMethod="reflect" id="fill25"><stop offset="0" stop-color="#EDEEF5"/><stop offset="0.0588235" stop-color="#EEEFF6"/><stop offset="0.117647" stop-color="#F0F1F7"/><stop offset="0.176471" stop-color="#F2F3F8"/><stop offset="0.235294" stop-color="#F4F4F8"/><stop offset="0.294118" stop-color="#F5F6F9"/><stop offset="0.352941" stop-color="#F7F7FA"/><stop offset="0.411765" stop-color="#F8F8FB"/><stop offset="0.470588" stop-color="#F9F9FB"/><stop offset="0.529412" stop-color="#FAFAFC"/><stop offset="0.588235" stop-color="#FBFBFD"/><stop offset="0.647059" stop-color="#FCFCFD"/><stop offset="0.705882" stop-color="#FDFDFD"/><stop offset="0.764706" stop-color="#FDFDFE"/><stop offset="0.823529" stop-color="#FEFEFE"/><stop offset="0.882353" stop-color="#FEFEFE"/><stop offset="0.941176" stop-color="#FEFEFE"/><stop offset="1" stop-color="#FFFFFF"/></linearGradient><linearGradient x1="1169.5" y1="218" x2="1169.5" y2="350" gradientUnits="userSpaceOnUse" spreadMethod="reflect" id="fill26"><stop offset="0" stop-color="#EDEEF5"/><stop offset="0.0588235" stop-color="#EEEFF6"/><stop offset="0.117647" stop-color="#F0F1F7"/><stop offset="0.176471" stop-color="#F2F3F8"/><stop offset="0.235294" stop-color="#F4F4F8"/><stop offset="0.294118" stop-color="#F5F6F9"/><stop offset="0.352941" stop-color="#F7F7FA"/><stop offset="0.411765" stop-color="#F8F8FB"/><stop offset="0.470588" stop-color="#F9F9FB"/><stop offset="0.529412" stop-color="#FAFAFC"/><stop offset="0.588235" stop-color="#FBFBFD"/><stop offset="0.647059" stop-color="#FCFCFD"/><stop offset="0.705882" stop-color="#FDFDFD"/><stop offset="0.764706" stop-color="#FDFDFE"/><stop offset="0.823529" stop-color="#FEFEFE"/><stop offset="0.882353" stop-color="#FEFEFE"/><stop offset="0.941176" stop-color="#FEFEFE"/><stop offset="1" stop-color="#FFFFFF"/></linearGradient><linearGradient x1="373.5" y1="102" x2="373.5" y2="184" gradientUnits="userSpaceOnUse" spreadMethod="reflect" id="fill27"><stop offset="0" stop-color="#EDEEF5"/><stop offset="0.0588235" stop-color="#EEEFF6"/><stop offset="0.117647" stop-color="#F0F1F7"/><stop offset="0.176471" stop-color="#F2F3F8"/><stop offset="0.235294" stop-color="#F4F4F8"/><stop offset="0.294118" stop-color="#F5F6F9"/><stop offset="0.352941" stop-color="#F7F7FA"/><stop offset="0.411765" stop-color="#F8F8FB"/><stop offset="0.470588" stop-color="#F9F9FB"/><stop offset="0.529412" stop-color="#FAFAFC"/><stop offset="0.588235" stop-color="#FBFBFD"/><stop offset="0.647059" stop-color="#FCFCFD"/><stop offset="0.705882" stop-color="#FDFDFD"/><stop offset="0.764706" stop-color="#FDFDFE"/><stop offset="0.823529" stop-color="#FEFEFE"/><stop offset="0.882353" stop-color="#FEFEFE"/><stop offset="0.941176" stop-color="#FEFEFE"/><stop offset="1" stop-color="#FFFFFF"/></linearGradient><linearGradient x1="639.5" y1="102" x2="639.5" y2="184" gradientUnits="userSpaceOnUse" spreadMethod="reflect" id="fill28"><stop offset="0" stop-color="#EDEEF5"/><stop offset="0.0588235" stop-color="#EEEFF6"/><stop offset="0.117647" stop-color="#F0F1F7"/><stop offset="0.176471" stop-color="#F2F3F8"/><stop offset="0.235294" stop-color="#F4F4F8"/><stop offset="0.294118" stop-color="#F5F6F9"/><stop offset="0.352941" stop-color="#F7F7FA"/><stop offset="0.411765" stop-color="#F8F8FB"/><stop offset="0.470588" stop-color="#F9F9FB"/><stop offset="0.529412" stop-color="#FAFAFC"/><stop offset="0.588235" stop-color="#FBFBFD"/><stop offset="0.647059" stop-color="#FCFCFD"/><stop offset="0.705882" stop-color="#FDFDFD"/><stop offset="0.764706" stop-color="#FDFDFE"/><stop offset="0.823529" stop-color="#FEFEFE"/><stop offset="0.882353" stop-color="#FEFEFE"/><stop offset="0.941176" stop-color="#FEFEFE"/><stop offset="1" stop-color="#FFFFFF"/></linearGradient><linearGradient x1="904.5" y1="102" x2="904.5" y2="184" gradientUnits="userSpaceOnUse" spreadMethod="reflect" id="fill29"><stop offset="0" stop-color="#EDEEF5"/><stop offset="0.0588235" stop-color="#EEEFF6"/><stop offset="0.117647" stop-color="#F0F1F7"/><stop offset="0.176471" stop-color="#F2F3F8"/><stop offset="0.235294" stop-color="#F4F4F8"/><stop offset="0.294118" stop-color="#F5F6F9"/><stop offset="0.352941" stop-color="#F7F7FA"/><stop offset="0.411765" stop-color="#F8F8FB"/><stop offset="0.470588" stop-color="#F9F9FB"/><stop offset="0.529412" stop-color="#FAFAFC"/><stop offset="0.588235" stop-color="#FBFBFD"/><stop offset="0.647059" stop-color="#FCFCFD"/><stop offset="0.705882" stop-color="#FDFDFD"/><stop offset="0.764706" stop-color="#FDFDFE"/><stop offset="0.823529" stop-color="#FEFEFE"/><stop offset="0.882353" stop-color="#FEFEFE"/><stop offset="0.941176" stop-color="#FEFEFE"/><stop offset="1" stop-color="#FFFFFF"/></linearGradient><linearGradient x1="1169.5" y1="105" x2="1169.5" y2="187" gradientUnits="userSpaceOnUse" spreadMethod="reflect" id="fill30"><stop offset="0" stop-color="#EDEEF5"/><stop offset="0.0588235" stop-color="#EEEFF6"/><stop offset="0.117647" stop-color="#F0F1F7"/><stop offset="0.176471" stop-color="#F2F3F8"/><stop offset="0.235294" stop-color="#F4F4F8"/><stop offset="0.294118" stop-color="#F5F6F9"/><stop offset="0.352941" stop-color="#F7F7FA"/><stop offset="0.411765" stop-color="#F8F8FB"/><stop offset="0.470588" stop-color="#F9F9FB"/><stop offset="0.529412" stop-color="#FAFAFC"/><stop offset="0.588235" stop-color="#FBFBFD"/><stop offset="0.647059" stop-color="#FCFCFD"/><stop offset="0.705882" stop-color="#FDFDFD"/><stop offset="0.764706" stop-color="#FDFDFE"/><stop offset="0.823529" stop-color="#FEFEFE"/><stop offset="0.882353" stop-color="#FEFEFE"/><stop offset="0.941176" stop-color="#FEFEFE"/><stop offset="1" stop-color="#FFFFFF"/></linearGradient><linearGradient x1="771.5" y1="380" x2="771.5" y2="704" gradientUnits="userSpaceOnUse" spreadMethod="reflect" id="fill31"><stop offset="0" stop-color="#EDEEF5"/><stop offset="0.0588235" stop-color="#EEEFF6"/><stop offset="0.117647" stop-color="#F0F1F7"/><stop offset="0.176471" stop-color="#F2F3F8"/><stop offset="0.235294" stop-color="#F4F4F8"/><stop offset="0.294118" stop-color="#F5F6F9"/><stop offset="0.352941" stop-color="#F7F7FA"/><stop offset="0.411765" stop-color="#F8F8FB"/><stop offset="0.470588" stop-color="#F9F9FB"/><stop offset="0.529412" stop-color="#FAFAFC"/><stop offset="0.588235" stop-color="#FBFBFD"/><stop offset="0.647059" stop-color="#FCFCFD"/><stop offset="0.705882" stop-color="#FDFDFD"/><stop offset="0.764706" stop-color="#FDFDFE"/><stop offset="0.823529" stop-color="#FEFEFE"/><stop offset="0.882353" stop-color="#FEFEFE"/><stop offset="0.941176" stop-color="#FEFEFE"/><stop offset="1" stop-color="#FFFFFF"/></linearGradient><linearGradient x1="130.5" y1="0" x2="130.5" y2="684" gradientUnits="userSpaceOnUse" spreadMethod="reflect" id="fill32"><stop offset="0" stop-color="#7B00AC"/><stop offset="0.3" stop-color="#7B00AC"/><stop offset="1" stop-color="#FDA9A9"/></linearGradient><linearGradient x1="771.5" y1="-6.11104e-15" x2="771.5" y2="82" gradientUnits="userSpaceOnUse" spreadMethod="reflect" id="fill33"><stop offset="0" stop-color="#EDEEF5"/><stop offset="0.0588235" stop-color="#EEEFF6"/><stop offset="0.117647" stop-color="#F0F1F7"/><stop offset="0.176471" stop-color="#F2F3F8"/><stop offset="0.235294" stop-color="#F4F4F8"/><stop offset="0.294118" stop-color="#F5F6F9"/><stop offset="0.352941" stop-color="#F7F7FA"/><stop offset="0.411765" stop-color="#F8F8FB"/><stop offset="0.470588" stop-color="#F9F9FB"/><stop offset="0.529412" stop-color="#FAFAFC"/><stop offset="0.588235" stop-color="#FBFBFD"/><stop offset="0.647059" stop-color="#FCFCFD"/><stop offset="0.705882" stop-color="#FDFDFD"/><stop offset="0.764706" stop-color="#FDFDFE"/><stop offset="0.823529" stop-color="#FEFEFE"/><stop offset="0.882353" stop-color="#FEFEFE"/><stop offset="0.941176" stop-color="#FEFEFE"/><stop offset="1" stop-color="#FFFFFF"/></linearGradient></defs><g clip-path="url(#clip22)"><rect x="0" y="0" width="1280" height="720" fill="#FFFFFF"/><path d="M-21 11.3258C-21-4.87041-7.87042-18 8.32573-18L1271.67-18C1287.87-18 1301-4.87041 1301 11.3258L1301 708.674C1301 724.87 1287.87 738 1271.67 738L8.32573 738C-7.87042 738-21 724.87-21 708.674Z" fill="#F3F4F7" fill-rule="evenodd"/><g filter="url(#fx0)" transform="translate(255 190)"><g><path d="M14.5719 36.5723C14.5719 24.4218 24.4218 14.5719 36.5723 14.5719L181.572 14.5719C193.722 14.5719 203.572 24.4218 203.572 36.5723L203.572 124.571C203.572 136.722 193.722 146.572 181.572 146.572L36.5723 146.572C24.4218 146.572 14.5719 136.722 14.5719 124.571Z" fill="#D9D9D9" fill-rule="evenodd"/></g></g><path d="M279 236C279 223.85 288.85 214 301 214L446 214C458.15 214 468 223.85 468 236L468 324C468 336.15 458.15 346 446 346L301 346C288.85 346 279 336.15 279 324Z" fill="#D9D9D9" fill-rule="evenodd"/><g filter="url(#fx1)" transform="translate(272 207)"><g><path d="M21.1422 43.1425C21.1422 30.9921 30.9921 21.1421 43.1425 21.1421L188.142 21.1421C200.292 21.1421 210.142 30.9921 210.142 43.1425L210.142 131.142C210.142 143.292 200.292 153.142 188.142 153.142L43.1425 153.142C30.9921 153.142 21.1422 143.292 21.1422 131.142Z" fill="#FF0000" fill-rule="evenodd"/></g></g><path d="M279 236C279 223.85 288.85 214 301 214L446 214C458.15 214 468 223.85 468 236L468 324C468 336.15 458.15 346 446 346L301 346C288.85 346 279 336.15 279 324Z" fill="url(#fill23)" fill-rule="evenodd"/><g filter="url(#fx2)" transform="translate(521 194)"><g><path d="M14.5719 36.5723C14.5719 24.4218 24.4218 14.5719 36.5723 14.5719L181.572 14.5719C193.722 14.5719 203.572 24.4218 203.572 36.5723L203.572 124.571C203.572 136.722 193.722 146.572 181.572 146.572L36.5723 146.572C24.4218 146.572 14.5719 136.722 14.5719 124.571Z" fill="#D9D9D9" fill-rule="evenodd"/></g></g><path d="M545 240C545 227.85 554.85 218 567 218L712 218C724.15 218 734 227.85 734 240L734 328C734 340.15 724.15 350 712 350L567 350C554.85 350 545 340.15 545 328Z" fill="#D9D9D9" fill-rule="evenodd"/><g filter="url(#fx3)" transform="translate(538 211)"><g><path d="M21.1422 43.1425C21.1422 30.9921 30.9921 21.1421 43.1425 21.1421L188.142 21.1421C200.292 21.1421 210.142 30.9921 210.142 43.1425L210.142 131.142C210.142 143.292 200.292 153.142 188.142 153.142L43.1425 153.142C30.9921 153.142 21.1422 143.292 21.1422 131.142Z" fill="#FF0000" fill-rule="evenodd"/></g></g><path d="M545 240C545 227.85 554.85 218 567 218L712 218C724.15 218 734 227.85 734 240L734 328C734 340.15 724.15 350 712 350L567 350C554.85 350 545 340.15 545 328Z" fill="url(#fill24)" fill-rule="evenodd"/><g filter="url(#fx4)" transform="translate(786 194)"><g><path d="M14.5719 36.5723C14.5719 24.4218 24.4218 14.5719 36.5723 14.5719L181.572 14.5719C193.722 14.5719 203.572 24.4218 203.572 36.5723L203.572 124.571C203.572 136.722 193.722 146.572 181.572 146.572L36.5723 146.572C24.4218 146.572 14.5719 136.722 14.5719 124.571Z" fill="#D9D9D9" fill-rule="evenodd"/></g></g><path d="M810 240C810 227.85 819.85 218 832 218L977 218C989.15 218 999 227.85 999 240L999 328C999 340.15 989.15 350 977 350L832 350C819.85 350 810 340.15 810 328Z" fill="#D9D9D9" fill-rule="evenodd"/><g filter="url(#fx5)" transform="translate(803 211)"><g><path d="M21.1422 43.1425C21.1422 30.9921 30.9921 21.1421 43.1425 21.1421L188.142 21.1421C200.292 21.1421 210.142 30.9921 210.142 43.1425L210.142 131.142C210.142 143.292 200.292 153.142 188.142 153.142L43.1425 153.142C30.9921 153.142 21.1422 143.292 21.1422 131.142Z" fill="#FF0000" fill-rule="evenodd"/></g></g><path d="M810 240C810 227.85 819.85 218 832 218L977 218C989.15 218 999 227.85 999 240L999 328C999 340.15 989.15 350 977 350L832 350C819.85 350 810 340.15 810 328Z" fill="url(#fill25)" fill-rule="evenodd"/><g filter="url(#fx6)" transform="translate(1051 194)"><g><path d="M14.5719 36.5723C14.5719 24.4218 24.4218 14.5719 36.5723 14.5719L181.572 14.5719C193.722 14.5719 203.572 24.4218 203.572 36.5723L203.572 124.571C203.572 136.722 193.722 146.572 181.572 146.572L36.5723 146.572C24.4218 146.572 14.5719 136.722 14.5719 124.571Z" fill="#D9D9D9" fill-rule="evenodd"/></g></g><path d="M1075 240C1075 227.85 1084.85 218 1097 218L1242 218C1254.15 218 1264 227.85 1264 240L1264 328C1264 340.15 1254.15 350 1242 350L1097 350C1084.85 350 1075 340.15 1075 328Z" fill="#D9D9D9" fill-rule="evenodd"/><g filter="url(#fx7)" transform="translate(1068 211)"><g><path d="M21.1421 43.1425C21.1421 30.9921 30.992 21.1421 43.1425 21.1421L188.142 21.1421C200.292 21.1421 210.142 30.9921 210.142 43.1425L210.142 131.142C210.142 143.292 200.292 153.142 188.142 153.142L43.1425 153.142C30.992 153.142 21.1421 143.292 21.1421 131.142Z" fill="#FF0000" fill-rule="evenodd"/></g></g><path d="M1075 240C1075 227.85 1084.85 218 1097 218L1242 218C1254.15 218 1264 227.85 1264 240L1264 328C1264 340.15 1254.15 350 1242 350L1097 350C1084.85 350 1075 340.15 1075 328Z" fill="url(#fill26)" fill-rule="evenodd"/><g filter="url(#fx8)" transform="translate(255 78)"><g><path d="M14.5719 28.2389C14.5719 20.6908 20.6908 14.5719 28.2388 14.5719L189.905 14.5719C197.453 14.5719 203.572 20.6908 203.572 28.2389L203.572 82.9049C203.572 90.453 197.453 96.5719 189.905 96.5719L28.2388 96.5719C20.6908 96.5719 14.5719 90.453 14.5719 82.9049Z" fill="#D9D9D9" fill-rule="evenodd"/></g></g><path d="M279 115.667C279 108.119 285.119 102 292.667 102L454.333 102C461.881 102 468 108.119 468 115.667L468 170.333C468 177.881 461.881 184 454.333 184L292.667 184C285.119 184 279 177.881 279 170.333Z" fill="#D9D9D9" fill-rule="evenodd"/><g filter="url(#fx9)" transform="translate(272 95)"><g><path d="M21.1422 34.8091C21.1422 27.261 27.2611 21.1421 34.8091 21.1421L196.475 21.1421C204.023 21.1421 210.142 27.261 210.142 34.8091L210.142 89.4752C210.142 97.0232 204.023 103.142 196.475 103.142L34.8091 103.142C27.2611 103.142 21.1422 97.0232 21.1422 89.4752Z" fill="#FF0000" fill-rule="evenodd"/></g></g><path d="M279 115.667C279 108.119 285.119 102 292.667 102L454.333 102C461.881 102 468 108.119 468 115.667L468 170.333C468 177.881 461.881 184 454.333 184L292.667 184C285.119 184 279 177.881 279 170.333Z" fill="url(#fill27)" fill-rule="evenodd"/><g filter="url(#fx10)" transform="translate(521 78)"><g><path d="M14.5719 28.2389C14.5719 20.6908 20.6908 14.5719 28.2388 14.5719L189.905 14.5719C197.453 14.5719 203.572 20.6908 203.572 28.2389L203.572 82.9049C203.572 90.453 197.453 96.5719 189.905 96.5719L28.2388 96.5719C20.6908 96.5719 14.5719 90.453 14.5719 82.9049Z" fill="#D9D9D9" fill-rule="evenodd"/></g></g><path d="M545 115.667C545 108.119 551.119 102 558.667 102L720.333 102C727.881 102 734 108.119 734 115.667L734 170.333C734 177.881 727.881 184 720.333 184L558.667 184C551.119 184 545 177.881 545 170.333Z" fill="#D9D9D9" fill-rule="evenodd"/><g filter="url(#fx11)" transform="translate(538 95)"><g><path d="M21.1422 34.8091C21.1422 27.261 27.2611 21.1421 34.8091 21.1421L196.475 21.1421C204.023 21.1421 210.142 27.261 210.142 34.8091L210.142 89.4752C210.142 97.0232 204.023 103.142 196.475 103.142L34.8091 103.142C27.2611 103.142 21.1422 97.0232 21.1422 89.4752Z" fill="#FF0000" fill-rule="evenodd"/></g></g><path d="M545 115.667C545 108.119 551.119 102 558.667 102L720.333 102C727.881 102 734 108.119 734 115.667L734 170.333C734 177.881 727.881 184 720.333 184L558.667 184C551.119 184 545 177.881 545 170.333Z" fill="url(#fill28)" fill-rule="evenodd"/><g filter="url(#fx12)" transform="translate(786 78)"><g><path d="M14.5719 28.2389C14.5719 20.6908 20.6908 14.5719 28.2388 14.5719L189.905 14.5719C197.453 14.5719 203.572 20.6908 203.572 28.2389L203.572 82.9049C203.572 90.453 197.453 96.5719 189.905 96.5719L28.2388 96.5719C20.6908 96.5719 14.5719 90.453 14.5719 82.9049Z" fill="#D9D9D9" fill-rule="evenodd"/></g></g><path d="M810 115.667C810 108.119 816.119 102 823.667 102L985.333 102C992.881 102 999 108.119 999 115.667L999 170.333C999 177.881 992.881 184 985.333 184L823.667 184C816.119 184 810 177.881 810 170.333Z" fill="#D9D9D9" fill-rule="evenodd"/><g filter="url(#fx13)" transform="translate(803 95)"><g><path d="M21.1422 34.8091C21.1422 27.261 27.2611 21.1421 34.8091 21.1421L196.475 21.1421C204.023 21.1421 210.142 27.261 210.142 34.8091L210.142 89.4752C210.142 97.0232 204.023 103.142 196.475 103.142L34.8091 103.142C27.2611 103.142 21.1422 97.0232 21.1422 89.4752Z" fill="#FF0000" fill-rule="evenodd"/></g></g><path d="M810 115.667C810 108.119 816.119 102 823.667 102L985.333 102C992.881 102 999 108.119 999 115.667L999 170.333C999 177.881 992.881 184 985.333 184L823.667 184C816.119 184 810 177.881 810 170.333Z" fill="url(#fill29)" fill-rule="evenodd"/><g filter="url(#fx14)" transform="translate(1051 81)"><g><path d="M14.5719 28.2389C14.5719 20.6908 20.6908 14.5719 28.2388 14.5719L189.905 14.5719C197.453 14.5719 203.572 20.6908 203.572 28.2389L203.572 82.9049C203.572 90.453 197.453 96.5719 189.905 96.5719L28.2388 96.5719C20.6908 96.5719 14.5719 90.453 14.5719 82.9049Z" fill="#D9D9D9" fill-rule="evenodd"/></g></g><path d="M1075 118.667C1075 111.119 1081.12 105 1088.67 105L1250.33 105C1257.88 105 1264 111.119 1264 118.667L1264 173.333C1264 180.881 1257.88 187 1250.33 187L1088.67 187C1081.12 187 1075 180.881 1075 173.333Z" fill="#D9D9D9" fill-rule="evenodd"/><g filter="url(#fx15)" transform="translate(1068 98)"><g><path d="M21.1421 34.8091C21.1421 27.261 27.261 21.1421 34.809 21.1421L196.475 21.1421C204.023 21.1421 210.142 27.261 210.142 34.8091L210.142 89.4752C210.142 97.0232 204.023 103.142 196.475 103.142L34.809 103.142C27.261 103.142 21.1421 97.0232 21.1421 89.4752Z" fill="#FF0000" fill-rule="evenodd"/></g></g><path d="M1075 118.667C1075 111.119 1081.12 105 1088.67 105L1250.33 105C1257.88 105 1264 111.119 1264 118.667L1264 173.333C1264 180.881 1257.88 187 1250.33 187L1088.67 187C1081.12 187 1075 180.881 1075 173.333Z" fill="url(#fill30)" fill-rule="evenodd"/><g filter="url(#fx16)" transform="translate(255 356)"><g><path d="M14.5719 68.5735C14.5719 38.7492 38.7492 14.5719 68.5735 14.5719L945.57 14.5719C975.395 14.5719 999.572 38.7492 999.572 68.5735L999.572 284.57C999.572 314.395 975.395 338.572 945.57 338.572L68.5735 338.572C38.7492 338.572 14.5719 314.395 14.5719 284.57Z" fill="#D9D9D9" fill-rule="evenodd"/></g></g><path d="M279 434.002C279 404.177 303.177 380 333.002 380L1210 380C1239.82 380 1264 404.177 1264 434.002L1264 649.998C1264 679.823 1239.82 704 1210 704L333.002 704C303.177 704 279 679.823 279 649.998Z" fill="#D9D9D9" fill-rule="evenodd"/><g filter="url(#fx17)" transform="translate(272 373)"><g><path d="M21.1422 75.1438C21.1422 45.3195 45.3195 21.1422 75.1437 21.1422L952.141 21.1422C981.965 21.1422 1006.14 45.3195 1006.14 75.1438L1006.14 291.141C1006.14 320.965 981.965 345.142 952.141 345.142L75.1437 345.142C45.3195 345.142 21.1422 320.965 21.1422 291.141Z" fill="#FF0000" fill-rule="evenodd"/></g></g><path d="M279 434.002C279 404.177 303.177 380 333.002 380L1210 380C1239.82 380 1264 404.177 1264 434.002L1264 649.998C1264 679.823 1239.82 704 1210 704L333.002 704C303.177 704 279 679.823 279 649.998Z" fill="url(#fill31)" fill-rule="evenodd"/><g filter="url(#fx18)" transform="translate(-8 -14)"><g><path d="M14.5719 42.7395C14.5719 21.6601 31.6602 4.57191 52.7396 4.57191L205.404 4.57191C226.484 4.57191 243.572 21.6601 243.572 42.7395L243.572 650.404C243.572 671.484 226.484 688.572 205.404 688.572L52.7396 688.572C31.6602 688.572 14.5719 671.484 14.5719 650.404Z" fill="#D9D9D9" fill-rule="evenodd"/></g></g><path d="M16 38.1676C16 17.0882 33.0882-1.08853e-14 54.1677-1.08853e-14L206.832 0C227.912-5.44265e-15 245 17.0882 245 38.1676L245 645.832C245 666.912 227.912 684 206.832 684L54.1677 684C33.0882 684 16 666.912 16 645.832Z" fill="#D9D9D9" fill-rule="evenodd"/><g filter="url(#fx19)" transform="translate(9 -7)"><g><path d="M21.1421 59.3097C21.1421 38.2303 38.2304 21.1421 59.3098 21.1421L211.974 21.1421C233.054 21.1421 250.142 38.2303 250.142 59.3097L250.142 666.975C250.142 688.054 233.054 705.142 211.974 705.142L59.3098 705.142C38.2304 705.142 21.1421 688.054 21.1421 666.975Z" fill="#FF0000" fill-rule="evenodd"/></g></g><path d="M16 38.1676C16 17.0882 33.0882-1.08853e-14 54.1677-1.08853e-14L206.832 0C227.912-5.44265e-15 245 17.0882 245 38.1676L245 645.832C245 666.912 227.912 684 206.832 684L54.1677 684C33.0882 684 16 666.912 16 645.832Z" fill="url(#fill32)" fill-rule="evenodd"/><g filter="url(#fx20)" transform="translate(255 -14)"><g><path d="M14.5719 18.2386C14.5719 10.6907 20.6906 4.57191 28.2385 4.57191L985.905 4.57191C993.453 4.57191 999.572 10.6907 999.572 18.2386L999.572 72.9052C999.572 80.4531 993.453 86.5719 985.905 86.5719L28.2385 86.5719C20.6906 86.5719 14.5719 80.4531 14.5719 72.9052Z" fill="#D9D9D9" fill-rule="evenodd"/></g></g><path d="M279 13.6667C279 6.11877 285.119-3.9189e-15 292.667-3.9189e-15L1250.33 0C1257.88-1.95945e-15 1264 6.11877 1264 13.6667L1264 68.3333C1264 75.8812 1257.88 82 1250.33 82L292.667 82C285.119 82 279 75.8812 279 68.3333Z" fill="#D9D9D9" fill-rule="evenodd"/><g filter="url(#fx21)" transform="translate(272 -7)"><g><path d="M21.1422 34.8088C21.1422 27.2609 27.2609 21.1421 34.8087 21.1421L992.476 21.1421C1000.02 21.1421 1006.14 27.2609 1006.14 34.8088L1006.14 89.4755C1006.14 97.0234 1000.02 103.142 992.476 103.142L34.8087 103.142C27.2609 103.142 21.1422 97.0234 21.1422 89.4755Z" fill="#FF0000" fill-rule="evenodd"/></g></g><path d="M279 13.6667C279 6.11877 285.119-3.9189e-15 292.667-3.9189e-15L1250.33 0C1257.88-1.95945e-15 1264 6.11877 1264 13.6667L1264 68.3333C1264 75.8812 1257.88 82 1250.33 82L292.667 82C285.119 82 279 75.8812 279 68.3333Z" fill="url(#fill33)" fill-rule="evenodd"/></g></svg>